<svg xmlns="http://www.w3.org/2000/svg" xmlns:xlink="http://www.w3.org/1999/xlink" viewBox="0 0 512 512"><defs><style>.a{fill:url(#a);}.b{fill:url(#b);}.c{fill:url(#c);}.d{fill:#323922;}.e{fill:#3f462a;}.f{fill:#525a37;}.g{fill:#687244;}.h{fill:#687345;}.i{fill:url(#d);}.j{fill:url(#e);}.k{fill:url(#f);}.l{fill:#4c3d65;}.m{fill:#4f3f69;}.n{fill:#c1a5ef;}.o{fill:url(#g);}.p{fill:url(#h);}.q{fill:url(#i);}.r{fill:url(#j);}.s{fill:url(#k);}.t{fill:url(#l);}.u{fill:url(#m);}.v,.x{fill:none;}.v{stroke-linejoin:round;stroke-width:4.1px;stroke:url(#n);}.w{fill:#020202;}.x{stroke:#020202;stroke-linecap:round;stroke-miterlimit:10;stroke-width:3.08px;}.y{fill:url(#o);}.z{fill:url(#p);}.aa{fill:#d6e3b1;}.ab{fill:#a3d4bc;}.ac{fill:#ebdfff;}.ad{fill:#d1d1d1;}.ae{fill:#dbe8b6;}.af{fill:#6b7748;}.ag{fill:#8e73b7;}.ah{fill:#b296df;}.ai{opacity:0.65;}.aj{fill:#647daa;}.ak,.am{fill:#97a8d3;}.ak,.al{fill-rule:evenodd;}.al,.an{fill:#43496f;}</style><radialGradient id="a" cx="-156.29" cy="455.31" r="40.64" gradientTransform="matrix(-0.04, 1.56, -2.55, -0.08, 1410.21, 735.49)" gradientUnits="userSpaceOnUse"><stop offset="0"/><stop offset="0.34" stop-color="#302f2f" stop-opacity="0.54"/><stop offset="0.62" stop-color="#353535" stop-opacity="0.17"/><stop offset="0.84" stop-color="#383838" stop-opacity="0"/></radialGradient><linearGradient id="b" x1="287.11" y1="418.26" x2="296.35" y2="418.26" gradientUnits="userSpaceOnUse"><stop offset="0" stop-color="#697345"/><stop offset="0.19" stop-color="#535b37"/><stop offset="0.34" stop-color="#3e432a"/><stop offset="0.72" stop-color="#141510"/><stop offset="0.78" stop-color="#1e2116"/><stop offset="0.87" stop-color="#3a3f28"/><stop offset="1" stop-color="#667043"/></linearGradient><linearGradient id="c" x1="239.91" y1="412.61" x2="249.15" y2="412.61" xlink:href="#b"/><radialGradient id="d" cx="267.62" cy="347.97" fx="253.58769447202303" r="51.56" gradientUnits="userSpaceOnUse"><stop offset="0" stop-color="#abbd71"/><stop offset="0.13" stop-color="#9aaa66"/><stop offset="0.26" stop-color="#869458"/><stop offset="0.38" stop-color="#78844f"/><stop offset="0.54" stop-color="#606a3f"/><stop offset="1" stop-color="#13150c"/></radialGradient><linearGradient id="e" x1="269.17" y1="319.75" x2="269.17" y2="286.56" gradientUnits="userSpaceOnUse"><stop offset="0" stop-color="#564470"/><stop offset="1" stop-color="#7860a0"/></linearGradient><linearGradient id="f" x1="208.1" y1="273.32" x2="330.72" y2="273.32" gradientUnits="userSpaceOnUse"><stop offset="0" stop-color="#a98cd6"/><stop offset="1" stop-color="#4d3f68"/></linearGradient><linearGradient id="g" x1="247.93" y1="258.68" x2="287.18" y2="252.39" xlink:href="#b"/><radialGradient id="h" cx="267.39" cy="190.53" r="96.62" gradientTransform="translate(-15.38 16.4) rotate(-4.75) scale(1 1.03)" gradientUnits="userSpaceOnUse"><stop offset="0" stop-color="#abbd71"/><stop offset="0.06" stop-color="#a3b46b"/><stop offset="0.15" stop-color="#8c9b5c"/><stop offset="0.17" stop-color="#869458"/><stop offset="0.25" stop-color="#78844f"/><stop offset="0.36" stop-color="#606a3f"/><stop offset="0.51" stop-color="#444b2c"/><stop offset="0.67" stop-color="#292d1b"/><stop offset="0.76" stop-color="#1f2214"/><stop offset="0.8" stop-color="#2d321d"/><stop offset="0.87" stop-color="#535b36"/><stop offset="0.96" stop-color="#8f9d5e"/><stop offset="1" stop-color="#a8b96f"/></radialGradient><linearGradient id="i" x1="154.88" y1="61.31" x2="242.94" y2="75.14" gradientUnits="userSpaceOnUse"><stop offset="0" stop-color="#abbd71"/><stop offset="0.07" stop-color="#a3b46b"/><stop offset="0.17" stop-color="#8c9b5c"/><stop offset="0.2" stop-color="#869458"/><stop offset="0.32" stop-color="#78844f"/><stop offset="0.48" stop-color="#606a3f"/><stop offset="0.66" stop-color="#444b2c"/><stop offset="0.88" stop-color="#292d1b"/><stop offset="1" stop-color="#1f2214"/></linearGradient><linearGradient id="j" x1="235.87" y1="81.41" x2="199.56" y2="90.73" gradientUnits="userSpaceOnUse"><stop offset="0.04" stop-color="#abbd71"/><stop offset="0.1" stop-color="#a3b46b"/><stop offset="0.21" stop-color="#8c9b5c"/><stop offset="0.23" stop-color="#869458"/><stop offset="0.34" stop-color="#78844f"/><stop offset="0.47" stop-color="#606a3f"/><stop offset="0.66" stop-color="#444b2c"/><stop offset="0.88" stop-color="#292d1b"/><stop offset="1" stop-color="#1f2214"/></linearGradient><linearGradient id="k" x1="287.19" y1="68.34" x2="343.23" y2="77.27" xlink:href="#i"/><linearGradient id="l" x1="333.3" y1="96.37" x2="294.78" y2="79.7" xlink:href="#j"/><linearGradient id="m" x1="161.07" y1="163.38" x2="375.48" y2="169.83" gradientUnits="userSpaceOnUse"><stop offset="0" stop-color="#78c49f"/><stop offset="1" stop-color="#927fc3"/></linearGradient><linearGradient id="n" x1="156.8" y1="166.86" x2="375.36" y2="166.86" gradientUnits="userSpaceOnUse"><stop offset="0" stop-color="#3ec49f"/><stop offset="1" stop-color="#923dc3"/></linearGradient><linearGradient id="o" x1="253.67" y1="449.94" x2="268.21" y2="472.41" xlink:href="#b"/><linearGradient id="p" x1="210.21" y1="436.55" x2="223.72" y2="457.43" xlink:href="#b"/></defs><title>0</title><ellipse class="a" cx="256" cy="453.92" rx="120.59" ry="54.08"/><rect class="b" x="287.11" y="394.15" width="9.23" height="48.23"/><rect class="c" x="239.91" y="396.2" width="9.23" height="32.84"/><circle class="d" cx="339.96" cy="334.12" r="28.73"/><path class="e" d="M368.37,328.15c0-4.22,5.8-5.92,5.13-9-.58-2.63-5.42-3.66-7.69-3.84-.4,0-7-.49-10.25,3.84-2.41,3.18-.45,5.51-2.56,7.69-3.5,3.62-10.68-.95-14.1,2.56-1.59,1.64-.63,3.25-1.28,7.69-1.39,9.64-5.81,3.87-6.4,9-.53,4.56,1.49,3.31,2.56,3.85,2.56,1.28-3,5.89-1.28,10.25,2,5,11.06,8,15.37,5.12,2.56-1.72,1.37-4.13,5.13-12.81,3.31-7.64,5.48-8.65,6.4-9,2.87-1,4.22,1,7.69,0,2.91-.84,6.23-3.46,6.41-6.4C373.72,333.29,368.4,332.17,368.37,328.15Z"/><path class="f" d="M339.48,300c-2.61,1.69-2.94,4.83-3,5.64-.37,3.53,1.54,6,1,6.34s-2.88-3.74-7.3-5.37c-2.92-1.08-7.8-1.39-10.13,1.54-2.62,3.28-.24,8.36.08,9.06s2.16,4.61,6,5.56c2,.49,3.66,0,6.33-1,5.88-2,7.17-4.73,9.75-4.08,2,.51,1.6,2.29,4.57,4.49a13.9,13.9,0,0,0,9.44,2.45c1.34-.14,6.23-.68,7.22-3.69.72-2.19-1-4.52-2.23-6.14-.61-.82-2.77-3.71-4.38-3.22s-1.9,4.2-1.95,4.18,2.87-10.72.79-11.78c-1.58-.81-4.84,4.6-7.21,3.69s-.8-6.87-3.88-8.48C342.44,298.13,339.69,299.86,339.48,300Z"/><path class="g" d="M369.65,342.24a7.17,7.17,0,0,0-1.54-4.53c1.54-.59,1.54-.59,0-2.47s-5.15-.82-8.33-3.32c-2.79-2.19.28-7.74-3.33-5.47-4.72,3-3.61,7.26-.7,12.14,1.55,2.61,4.09,3.76,3.81,4.28-.43.78-5.64-3-10.47-1.42-4.06,1.34-5.05,4.33-5.05,5.92,0,2.56,3.19,3.84,7.69,3.84,2.56,0,3.84-2.4,3.84,0,0,2.56-1.45,5.15,0,6.4,1.9,1.66,8.57.89,9.71-1.43,1.82-3.69-3.67-5.41-2.86-6.66.72-1.1,4.24,1,5.71-.48C368.88,348.28,369.72,347.58,369.65,342.24Z"/><path class="h" d="M331.22,311.49c-2.43-.73-1.76-3.35-3.85-3.84-1.78-.42-4.9.87-5.69,2.08a6.81,6.81,0,0,0-1,5c.45,2.23,2.22,4.65,4.24,4.8,1.36.1.68-1.65,2.49-1.65,1.29,0,2.35,1,3.85,1.28,2.75.49,5.33-.83,6.4-1.28s1.76-.93,1.1-2c-1.1-1.81-1.1-1.81-3.66-3.1A17.28,17.28,0,0,0,331.22,311.49Z"/><path class="i" d="M328.16,350.94c0,31.94-27.88,51.41-60.54,51.41s-60.54-19.47-60.54-51.41,25.55-57.35,58.21-57.35S328.16,319,328.16,350.94Z"/><path class="j" d="M321,309c0,5.39-16.56,10.77-50.27,10.77s-54.39-7.44-54.39-12.82l-8.21-33.86h.52c0,5.38,27.33,10.26,61.05,10.26,31.13,0,56.81-4.23,60.57-9C330.24,274.29,321,308.54,321,309Z"/><path class="k" d="M330.72,273.32a2.07,2.07,0,0,1-.48,1.26c-3.77,4.93-29.56,8.75-60.83,8.75-33.86,0-61.31-4.48-61.31-10s27.45-10,61.31-10S330.72,267.79,330.72,273.32Z"/><path class="l" d="M279.76,267.64c4.44.39,10.43.3,16.59,1.32,4.6.77,9.17,3,7.17,5.08s-5.12,3.13-10.25,4.16c-6.12,1.22-8.89,1.47-19.91,1.32-6.81-.09-24.75-4.1-25.24-6.45C247.5,270.05,268.85,266.66,279.76,267.64Z"/><circle class="m" cx="240.94" cy="301.8" r="8.21"/><path class="m" d="M223.5,296.67a8.2,8.2,0,0,1-7.68,8.18l-.28-1.1-7.33-2.94a8.11,8.11,0,0,1-1.13-4.14,8.21,8.21,0,0,1,16.42,0Z"/><circle class="m" cx="268.64" cy="303.85" r="8.21"/><circle class="m" cx="299.43" cy="301.8" r="8.21"/><path class="m" d="M330.44,289.7,323,303.12l-.45-.17-.24.9,0,.07a8.2,8.2,0,1,1,8.16-14.22Z"/><circle class="n" cx="239.91" cy="300.77" r="8.21"/><circle class="n" cx="214.26" cy="295.64" r="8.21"/><circle class="n" cx="267.62" cy="302.82" r="8.21"/><circle class="n" cx="298.4" cy="300.77" r="8.21"/><circle class="n" cx="325.08" cy="295.64" r="8.21"/><path class="o" d="M292.24,273.07c0,1.9-10.23,3.4-22.21,3.4s-21.91-1.5-21.91-3.4l0-.19,4.08-21.36,0-.17,3.28-16.74,26.44.49,4,16.19.06.23,6.07,21.25Z"/><circle class="p" cx="270.18" cy="170.97" r="77.47"/><path class="q" d="M253.25,126.33c4-2.12,3.32-10.26,2.2-14.64L245,70.92s-5.13-23.6-28.73-44.12L192.71,6.28s-4.1-5.13-10.26,0-13.34,21.55-13.34,21.55S143.46,74,151.67,103.76,160.9,113,160.9,113l13.34-25.65,11.29-25.65,2.05-10.26,1,33.86s4.1,20.52,8.21,28.73c2.68,5.37,13.73,13.39,21,18.28A15.52,15.52,0,0,0,231.72,134Z"/><path class="r" d="M250.17,119.15c3-7.77-4.14-12-19.49-39-4.39-7.72-14.13-25.51-27.71-34.89-1.68-1.16-4.69-3.07-7.18-2.05-4.5,1.84-4.3,12-4.1,18.47a97.17,97.17,0,0,0,5.13,27.7c4.62,14.42,7.09,22.14,14.36,29.76,4.49,4.71,11,11.53,20.52,11.29C238.88,130.26,247.49,126.08,250.17,119.15Z"/><path class="s" d="M276.15,117.33c-2.87-8.46,1.09-15.86,7.34-29C308.94,34.82,315.11,6.48,323.2,8.05c1.15.22,2.26,1,5.2,7A110.17,110.17,0,0,1,339.32,54c2.66,42.83,3.8,64.44-5.59,73.85a33.4,33.4,0,0,1-16.86,9C300.31,140.21,280.72,130.8,276.15,117.33Z"/><path class="t" d="M284.57,116.48c3.44,9.92,14,13.35,14.62,13.54,1.47.45,8.69,2.67,15.67-.83s9.57-10.75,11.95-18c1.38-4.15,5.52-18,1.87-41.21-1.61-10.21-4.4-27.92-10.37-28.47-3.24-.3-4.75,4.68-14.57,21.72-10,17.41-16.41,26-19.42,40.72C283.53,107.85,283,112,284.57,116.48Z"/><polygon class="u" points="373.31 137.62 351.15 201.24 299.78 196.32 275.83 167.38 253.49 167.38 223.29 193.03 183.01 193.03 158.85 132.49 373.31 137.62"/><polygon class="v" points="373.31 137.62 351.15 201.24 299.78 196.32 275.83 167.38 253.49 167.38 223.29 193.03 183.01 193.03 158.85 132.49 373.31 137.62"/><path class="w" d="M263,179.69h0c-3.6,0-5.64,1-9.36,3.54l-5.5,5.28c-2.07,2.47-2,6.14,1.12,8.07l11.05,6.74a6.72,6.72,0,0,0,6.72.17l9.74-5.28c4.94-2.68,5.63-8.37,1.43-11.78l-3.38-2.76A18.85,18.85,0,0,0,263,179.69Z"/><path class="x" d="M230.16,221.25s6.16,16.42,25.66,11.28c7.22-1.9,8.21-12.31,8.21-12.31v0s3.61,11.57,10.26,13.34c15.39,4.11,24.62-6.16,25.65-9.23"/><path class="y" d="M296.35,442.37c1.7,2.18,1.45,7.87,0,10.26-2.2,3.62-6.73,3.67-12.32,5.13-8.52,2.24-14.21,6.41-19.49,10.26-8.13,6-9.53,5.64-19.5,13.34-5.74,4.44-11.59,7.93-14.36,6.16-3.83-2.45,1.39-13.38,2-14.37,6.16-9.23,7.49-8.62,10.26-11.28s9.24-7.19,17.44-11.29c3.63-1.81,10.27-4.1,19.5-7.18C292.09,439.35,295.05,440.71,296.35,442.37Z"/><path class="z" d="M249.89,429.4c1.58,2,1.35,7.37,0,9.61-2,3.39-6.24,3.43-11.44,4.81-7.92,2.09-13.21,6-18.11,9.61-7.56,5.56-8.85,5.27-18.12,12.49-5.34,4.16-10.77,7.43-13.35,5.77-3.55-2.29,1.3-12.53,1.91-13.46,5.72-8.65,7-8.07,9.53-10.57s8.59-6.73,16.21-10.57c3.37-1.7,9.54-3.85,18.12-6.73C245.94,426.57,248.69,427.84,249.89,429.4Z"/><path class="aa" d="M184.5,11.41c-1.75-.69-11.78,17.33-18.47,35.91-.42,1.19-1,2.82-1.63,4.77-6.62,20.35-9.57,42.94-7.6,43.46C160.69,96.58,188.13,12.84,184.5,11.41Z"/><polygon class="ab" points="160.9 133.52 228.63 135.57 221.44 133.52 159.88 131.46 160.9 133.52"/><circle class="ac" cx="210.67" cy="296.15" r="4.62"/><circle class="ac" cx="239.4" cy="301.28" r="4.62"/><circle class="ac" cx="267.1" cy="303.34" r="4.62"/><circle class="ac" cx="299.94" cy="301.28" r="4.62"/><circle class="ac" cx="328.67" cy="296.15" r="4.62"/><path class="ad" d="M262.52,183.74c-1.19-1.37-6.23.57-9.17,3.67-.59.62-2.4,2.52-1.84,3.67.65,1.34,4.14.84,4.36.8a8.71,8.71,0,0,0,2.66-.9,9.75,9.75,0,0,0,1.24-.81C261.5,188.79,263.59,185,262.52,183.74Z"/><path class="ad" d="M265.7,183.67c-.58.51-.4,1.8.16,2.52,1.3,1.68,4.89.59,5-.33S266.85,182.66,265.7,183.67Z"/><path class="ae" d="M317.9,18.59c-2.07-.54-6.17,10.66-15.4,31.81-8.71,20-13.05,28.34-12.31,28.73.52.28,2.81-3.83,12.31-18.47,10.21-15.71,16.07-24,16.42-35.91C319,23,319.1,18.91,317.9,18.59Z"/><path class="af" d="M234.78,478.29c3.08-1,3.51-2.88,8.21-7.19,5.57-5.1,9.24-7.18,13.34-11.28,1.39-1.39,1.71-4.49,1-5.14s-4.26,1.93-11.29,7.19c-6.7,5-8.29,7.3-10.26,10.26S231.86,479.26,234.78,478.29Z"/><path class="af" d="M191.48,463.94c2.64-.88,3-2.48,7.05-6.18,4.79-4.38,7.94-6.17,11.47-9.7,1.19-1.19,1.47-3.85.89-4.41s-3.67,1.65-9.71,6.17c-5.76,4.32-7.12,6.28-8.82,8.83S189,464.78,191.48,463.94Z"/><path class="ag" d="M227.6,267.94c-1,0-3.08-1.28-6.16,0-1,.42-2.55,2-4.81,2.88-3.62,1.43-4.44,2.19-4.52,2.68-.17,1.07,5.31,3.33,6,3.59a64.71,64.71,0,0,0,6.38,2.13c2.82.65,7.15-.12,7.18-.34.07-.4-12.19-3.72-12-5.38,0-.51,2.46-1.85,5.27-2.68,3-.9,3.77-.9,4.52-1.8C229.76,268.65,227.73,267.94,227.6,267.94Z"/><path class="ah" d="M226.57,267.94c-1.1-.55-3.07-1-6.15,0-1,.32-3.9,1.15-6.16,2.05-3.63,1.44-4.1,2.05-4.11,3.51,0,1.08,5.31,3.33,6,3.59,2.49.9,5.73,1.6,7.32,2.13,3.07,1,6.15,0,6.24-.34s-12.19-3.72-12.05-5.38c0-.51,2.46-1.85,5.27-2.68,3-.9,3.89-1,4.64-1.86C227.91,268.59,226.57,267.94,226.57,267.94Z"/><g class="ai"><polygon class="aj" points="296.17 341.42 295.86 341.88 295.28 341.97 295.5 341.52 296.17 341.42"/><polygon class="aj" points="311.11 337.47 309.99 339.86 296.64 341.77 296.96 341.31 309.95 339.45 310.97 337.27 311.11 337.47"/><path class="aj" d="M302.32,329.15l-.1.22.2.31.12-.21Z"/><polygon class="aj" points="297.44 338.07 297.51 338.31 297.46 338.35 297.35 338.12 297.18 338.45 297.23 338.81 297.14 338.71 297.04 338.91 297.09 339.19 297 339.04 296.73 339.57 296.79 339.98 296.95 340.28 296.49 340.96 295.2 341.14 296.7 338.15 297.44 338.07"/><polygon class="aj" points="311.03 336.64 309.91 339.03 298.34 340.69 298.24 340.28 298.24 340.28 298.46 340.56 298.75 340.37 298.71 340.06 298.93 340.26 299.65 338.13 299.88 337.79 300.27 337.75 302.07 339.28 302.33 337.51 307.75 336.91 304.05 331.95 304.17 331.74 308 336.89 308.25 336.86 302.14 328.54 303.55 325.62 304.19 326.56 304.36 326.8 304.7 327.3 304.86 327.54 304.94 327.67 305.11 327.91 305.66 328.73 305.82 328.96 311.03 336.64"/><path class="aj" d="M295.49,336.24l-1.39,2.89L291,331.31l-.07.15,3.25,8.09,1.48-3.07Z"/><polygon class="aj" points="299.95 327.26 300.23 327.18 298.84 329.85 293.29 330.92 295.55 335.3 294.15 338.2 291.08 330.55 292.01 328.69 300.16 326.4 298.77 329.07 292.92 330.19 293.11 330.56 298.81 329.46 299.95 327.26"/><polygon class="ak" points="307.38 325.28 307.6 326.1 305.82 328.97 305.67 328.74 307.5 325.79 307.38 325.28"/><polygon class="al" points="307.07 323.89 307.38 325.28 307.5 325.79 305.67 328.74 305.11 327.92 304.94 327.68 306.46 325.38 306.46 325.27 306.45 324.83 305.99 325.09 304.7 327.31 304.36 326.81 304.2 326.57 305.34 324.67 307.07 323.89"/><polygon class="ak" points="306.45 324.83 306.46 325.27 306.04 325.51 304.86 327.55 304.7 327.31 305.99 325.09 306.45 324.83"/><polygon class="ak" points="304.32 331.51 304.17 331.74 304.05 331.95 301.51 336.06 301.31 335.92 304.16 331.31 304.32 331.51"/><polygon class="ak" points="303.32 330.15 301.29 333.36 303.22 330.01 303.32 330.15"/><polygon class="am" points="300.52 336.92 300.39 337.1 299.11 335.98 298.82 336.42 297.92 335.57 297.89 335.25 298.86 336.16 299.1 335.67 300.52 336.92"/><polygon class="am" points="302.34 336.66 302.39 337.07 302.31 337.63 302.07 339.28 300.38 337.84 300.27 337.75 300.21 337.33 300.44 337.52 300.76 337.8 300.77 337.8 302.02 338.87 302.2 337.64 302.29 336.99 302.34 336.66"/><polygon class="am" points="300.07 337.01 300.12 337.43 299.88 337.79 299.65 338.13 298.93 340.26 298.71 340.06 298.75 340.37 298.46 340.56 298.24 340.28 298.04 340.01 298.19 339.88 298.41 340.16 298.7 339.97 298.42 339.65 298.54 339.54 298.87 339.86 299.56 337.82 299.6 337.72 299.92 337.24 300.07 337.01"/><polygon class="am" points="298.24 340.29 298.34 340.69 298.34 340.69 298.12 340.85 298.05 340.73 297.97 340.61 297.92 340.65 297.93 340.75 297.96 340.97 297.49 341.17 297.32 340.86 297.01 341.3 296.68 341.76 295.28 343.76 294.96 343.57 295.06 343.42 295.13 343.47 297.2 340.42 297.39 340.77 297.86 340.57 297.74 340.31 297.87 340.21 298.02 340.45 298.24 340.29"/><polygon class="am" points="297.04 340.13 296.95 340.28 296.79 339.98 296.73 339.57 297.04 340.13"/><polygon class="am" points="297.31 339.29 297.24 339.45 297.09 339.19 297.04 338.91 297.2 339.13 297.31 339.29"/><polygon class="am" points="297.49 338.83 297.42 339.02 297.23 338.81 297.18 338.45 297.35 338.65 297.49 338.83"/><polygon class="am" points="297.66 338.36 297.57 338.55 297.46 338.35 297.51 338.31 297.44 338.07 297.41 337.93 297.49 338.07 297.59 338.24 297.66 338.36"/><polygon class="an" points="301.52 336.07 302.34 336.66 302.29 336.99 302.2 337.64 302.02 338.87 300.77 337.8 300.76 337.8 300.44 337.52 300.21 337.33 300.36 337.14 300.52 336.92 299.1 335.67 298.86 336.16 298.17 335.5 297.89 335.25 299.14 334.35 299.46 334.59 302.67 329.26 303.22 330.01 301.29 333.36 303.37 330.21 304.16 331.31 301.31 335.92 301.52 336.07"/><polygon class="an" points="300.07 337.02 299.92 337.25 299.6 337.73 299.57 337.84 298.87 339.86 298.54 339.54 298.42 339.65 298.7 339.97 298.41 340.16 298.19 339.88 298.04 340.01 298.24 340.29 298.02 340.45 297.87 340.21 297.74 340.31 297.86 340.57 297.39 340.77 297.2 340.42 297.11 340.56 296.88 340.91 296.56 341.37 296.25 341.83 295.13 343.47 295.04 343.4 294.89 343.31 295.86 341.88 296.17 341.42 296.49 340.96 296.95 340.28 297.04 340.13 296.73 339.57 297 339.04 297.09 339.19 297.24 339.45 297.31 339.29 297.2 339.13 297.04 338.91 297.14 338.71 297.23 338.81 297.42 339.02 297.49 338.83 297.35 338.65 297.18 338.45 297.35 338.12 297.46 338.35 297.57 338.55 297.57 338.54 297.66 338.36 297.59 338.24 297.49 338.07 297.41 337.93 298.44 337.06 299.04 336.12 300.07 337.02"/></g></svg>